<svg width="391" height="157" viewBox="0 0 391 157" fill="none" xmlns="http://www.w3.org/2000/svg">
<g opacity="0.6">
<path d="M353.012 120.96C328.187 120.96 309.693 102.965 309.693 77.807C309.693 54.3147 326.521 35.1543 351.013 35.1543C375.672 35.1543 391 52.9818 391 75.8076V82.4721H325.688C327.521 96.4675 338.184 106.298 352.846 106.298C362.843 106.298 371.84 101.966 376.671 92.9687L389.334 99.4665C382.17 113.462 369.007 120.96 353.012 120.96ZM326.355 71.8089H374.505C373.839 58.8132 364.342 49.9828 350.847 49.9828C337.018 49.9828 328.021 59.6463 326.355 71.8089Z" fill="white"/>
<path d="M267.664 120.96C252.502 120.96 240.839 114.962 234.508 102.799L247.17 95.8016C251.336 103.966 258 106.965 266.997 106.965C276.327 106.965 283.492 103.133 283.492 95.9682C283.492 78.8072 236.674 91.8029 236.674 60.6465C236.674 46.3178 249.336 35.8213 267.164 35.8213C282.325 35.8213 292.655 42.819 297.82 52.3159L285.158 59.4802C281.659 52.3159 274.995 49.8167 267.497 49.8167C259.833 49.8167 253.168 53.8154 253.168 60.3133C253.168 76.9745 299.986 64.8118 299.986 95.635C299.986 111.13 284.991 120.96 267.664 120.96Z" fill="white"/>
<path d="M199.974 0H216.469V119.128H199.974V0Z" fill="white"/>
<path d="M139.423 105.131C154.585 105.131 162.916 91.9685 162.916 76.8068V37.4863H179.41V78.8061C179.41 102.465 165.081 121.126 139.423 121.126C114.098 121.126 99.7695 102.298 99.7695 78.6395V37.4863H116.264V76.9734C116.264 91.9685 124.428 105.131 139.423 105.131Z" fill="white"/>
<path d="M16.4946 156.614H0V78.14C0 53.8146 18.8272 35.4873 43.4857 35.4873C68.1443 35.4873 86.8049 54.8143 86.8049 78.14C86.8049 102.799 68.9774 121.126 44.1522 121.126C33.1558 121.126 23.1591 116.294 16.4946 108.963V156.614ZM43.4857 105.631C58.6474 105.631 70.3103 93.1351 70.3103 78.3066C70.3103 63.3115 58.6474 51.1488 43.4857 51.1488C28.1574 51.1488 16.4946 63.3115 16.4946 78.3066C16.4946 93.1351 28.1574 105.631 43.4857 105.631Z" fill="white"/>
</g>
</svg>
